<svg xmlns="http://www.w3.org/2000/svg" xmlns:xlink="http://www.w3.org/1999/xlink" version="1.1" x="0px" y="0px" viewBox="0 0 100 125" enable-background="new 0 0 100 100" xml:space="preserve"><g><path fill="#ffffff" d="M58.4,10.7c8,0,14.6,6.5,14.6,14.6v41c0,12.7-10.3,23-23,23c-12.7,0-23-10.3-23-23v-41   c0-8,6.5-14.6,14.6-14.6H58.4 M58.4,5H41.6c-11.2,0-20.3,9.1-20.3,20.3v41C21.3,82.1,34.1,95,50,95h0c15.9,0,28.7-12.9,28.7-28.7   v-41C78.7,14.1,69.6,5,58.4,5L58.4,5z"/></g><g><path fill="#ffffff" d="M50,52.5c-0.3,0-0.7-0.1-1-0.3L40.2,46c-0.8-0.5-1-1.6-0.4-2.4c0.5-0.8,1.6-1,2.4-0.4l7.8,5.5l7.8-5.5   c0.8-0.5,1.8-0.4,2.4,0.4c0.5,0.8,0.4,1.8-0.4,2.4L51,52.2C50.7,52.4,50.3,52.5,50,52.5z"/></g><g><path fill="#ffffff" d="M50.1,65.8c-0.3,0-0.7-0.1-1-0.3l-8.8-6.2c-0.8-0.5-1-1.6-0.4-2.4c0.5-0.8,1.6-1,2.4-0.4l7.8,5.5l7.8-5.5   c0.8-0.5,1.8-0.4,2.4,0.4c0.5,0.8,0.4,1.8-0.4,2.4l-8.8,6.2C50.8,65.7,50.5,65.8,50.1,65.8z"/></g><g><path fill="#ffffff" d="M50,78.8c-0.3,0-0.7-0.1-1-0.3l-8.8-6.2c-0.8-0.5-1-1.6-0.4-2.4s1.6-1,2.4-0.4L50,75l7.8-5.5   c0.8-0.5,1.8-0.4,2.4,0.4c0.5,0.8,0.4,1.8-0.4,2.4L51,78.5C50.7,78.7,50.3,78.8,50,78.8z"/></g><path fill="#ffffff" d="M50,36.3c-1.9,0-3.4-1.5-3.4-3.4v-7.5c0-1.9,1.5-3.4,3.4-3.4s3.4,1.5,3.4,3.4v7.5  C53.4,34.8,51.9,36.3,50,36.3z"/><text x="0" y="115" fill="#ffffff" font-size="5px" font-weight="bold" font-family="'Helvetica Neue', Helvetica, Arial-Unicode, Arial, Sans-serif"></text><text x="0" y="120" fill="#ffffff" font-size="5px" font-weight="bold" font-family="'Helvetica Neue', Helvetica, Arial-Unicode, Arial, Sans-serif"></text></svg>