<svg xmlns="http://www.w3.org/2000/svg" xmlns:xlink="http://www.w3.org/1999/xlink" xmlns:sketch="http://www.bohemiancoding.com/sketch/ns" viewBox="0 0 30 37.5" version="1.1" x="0px" y="0px"><title>gesture_086-swipe_down-finger-hand-arrow-touch</title><desc>Created with Sketch.</desc><g stroke="none" stroke-width="1" fill="none" fill-rule="evenodd" sketch:type="MSPage"><g sketch:type="MSArtboardGroup" transform="translate(-180.000000, -450.000000)" fill="#ffffff"><path d="M181.5,458.585786 L180.792893,459.292893 L183.5,462 L186.207107,459.292893 L185.5,458.585786 L184,460.085786 L184,450 L183,450 L183,460.085786 L181.5,458.585786 Z M187.918919,461.643081 L188.388302,460.58783 L189.536277,460.46721 L194.404524,467.168351 L195.21384,466.580348 L194.02115,464.940011 L194.490728,463.883825 L195.638508,463.764139 L196.831575,465.404995 L197.640891,464.816992 L196.858061,463.628633 L197.32764,462.572447 L198.475419,462.452761 L199.258626,463.641639 L200.067942,463.053636 L199.479396,462.243572 L199.948779,461.18832 L201.096754,461.067701 L204.669769,465.985456 L206.186368,471.474983 L207.709124,473.570877 L208.518141,472.983091 L207.101971,471.0339 L205.58515,465.543572 L201.574276,460.023651 L199.279003,460.265823 L198.808878,461.321515 L196.657564,461.650167 L196.18873,462.707715 L193.820653,462.961545 L193.351637,464.019225 L190.014235,459.424426 L187.718526,459.665333 L186.779082,461.774902 L191.36477,468.08739 L189.80799,472.750303 L192.646569,476.657271 L199.59701,479.464672 L200.551042,478.771528 L193.287012,475.837463 L190.919492,472.578852 L192.087072,469.081684 L194.916814,472.97649 L195.725744,472.388768 L187.918919,461.643081 Z" sketch:type="MSShapeGroup"/></g></g><text x="0" y="45" fill="#ffffff" font-size="5px" font-weight="bold" font-family="'Helvetica Neue', Helvetica, Arial-Unicode, Arial, Sans-serif">Created by Pham Thi Dieu Linh</text><text x="0" y="50" fill="#ffffff" font-size="5px" font-weight="bold" font-family="'Helvetica Neue', Helvetica, Arial-Unicode, Arial, Sans-serif">from the Noun Project</text></svg>