<svg xmlns="http://www.w3.org/2000/svg" xmlns:xlink="http://www.w3.org/1999/xlink" width="1080" zoomAndPan="magnify" viewBox="0 0 810 809.999993" height="1080" preserveAspectRatio="xMidYMid meet" version="1.0"><defs><clipPath id="4c04da9065"><path d="M 0 785.0625 L 18.753906 785.0625 L 18.753906 810 L 0 810 Z M 0 785.0625 " clip-rule="nonzero"/></clipPath><clipPath id="3c15a18f9f"><path d="M 287 243 L 522 243 L 522 567 L 287 567 Z M 287 243 " clip-rule="nonzero"/></clipPath></defs><g clip-path="url(#4c04da9065)"><path fill="#ffffff" d="M -143.246094 785.0625 C -232.714844 785.0625 -305.246094 857.589844 -305.246094 947.0625 C -305.246094 1036.53125 -232.714844 1109.0625 -143.246094 1109.0625 C -53.773438 1109.0625 18.753906 1036.53125 18.753906 947.0625 C 18.753906 857.589844 -53.773438 785.0625 -143.246094 785.0625 Z M -241.980469 869.574219 L -44.714844 869.574219 C -44.492188 869.570312 -44.289062 869.632812 -44.101562 869.757812 C -43.914062 869.882812 -43.78125 870.050781 -43.699219 870.257812 C -43.613281 870.464844 -43.597656 870.675781 -43.644531 870.894531 C -43.691406 871.113281 -43.796875 871.300781 -43.960938 871.453125 L -110.273438 934.390625 L -110.382812 934.496094 L -130.183594 953.289062 C -130.65625 953.738281 -131.148438 954.164062 -131.660156 954.566406 C -132.171875 954.972656 -132.703125 955.347656 -133.253906 955.699219 C -133.800781 956.050781 -134.367188 956.375 -134.945312 956.675781 C -135.527344 956.972656 -136.121094 957.242188 -136.726562 957.480469 C -137.332031 957.722656 -137.945312 957.933594 -138.574219 958.113281 C -139.199219 958.296875 -139.832031 958.449219 -140.472656 958.570312 C -141.113281 958.691406 -141.757812 958.78125 -142.40625 958.839844 C -143.058594 958.898438 -143.707031 958.925781 -144.359375 958.921875 C -145.011719 958.917969 -145.660156 958.882812 -146.3125 958.816406 C -146.960938 958.753906 -147.601562 958.65625 -148.242188 958.527344 C -148.882812 958.398438 -149.511719 958.242188 -150.136719 958.054688 C -150.761719 957.867188 -151.375 957.648438 -151.980469 957.402344 C -152.582031 957.152344 -153.171875 956.878906 -153.75 956.574219 C -154.324219 956.269531 -154.886719 955.941406 -155.433594 955.582031 C -155.976562 955.226562 -156.503906 954.84375 -157.011719 954.433594 C -157.519531 954.027344 -158.007812 953.59375 -158.476562 953.140625 L -176.808594 935.363281 C -176.839844 935.335938 -176.871094 935.304688 -176.902344 935.273438 L -242.746094 871.445312 C -242.90625 871.289062 -243.007812 871.105469 -243.054688 870.886719 C -243.097656 870.667969 -243.078125 870.457031 -242.996094 870.25 C -242.910156 870.046875 -242.777344 869.882812 -242.59375 869.757812 C -242.40625 869.632812 -242.203125 869.574219 -241.980469 869.574219 Z M -251.28125 1013.664062 L -251.28125 878.28125 C -251.28125 878.0625 -251.21875 877.863281 -251.097656 877.679688 C -250.976562 877.496094 -250.816406 877.363281 -250.617188 877.277344 C -250.414062 877.191406 -250.207031 877.167969 -249.992188 877.210938 C -249.773438 877.25 -249.589844 877.34375 -249.433594 877.496094 L -186.863281 938.164062 C -186.65625 938.363281 -186.546875 938.605469 -186.53125 938.890625 C -186.519531 939.175781 -186.601562 939.425781 -186.785156 939.644531 L -249.355469 1014.367188 C -249.5 1014.542969 -249.6875 1014.660156 -249.90625 1014.722656 C -250.128906 1014.78125 -250.347656 1014.769531 -250.5625 1014.691406 C -250.78125 1014.613281 -250.953125 1014.480469 -251.085938 1014.292969 C -251.214844 1014.101562 -251.28125 1013.894531 -251.28125 1013.664062 Z M -42.683594 1024.546875 L -243.804688 1024.546875 C -244.015625 1024.546875 -244.210938 1024.492188 -244.390625 1024.378906 C -244.570312 1024.265625 -244.703125 1024.113281 -244.792969 1023.917969 C -244.882812 1023.726562 -244.914062 1023.527344 -244.886719 1023.316406 C -244.859375 1023.105469 -244.777344 1022.921875 -244.640625 1022.757812 L -180.40625 946.054688 C -180.308594 945.9375 -180.191406 945.84375 -180.058594 945.777344 C -179.921875 945.710938 -179.777344 945.671875 -179.628906 945.664062 C -179.476562 945.65625 -179.328125 945.679688 -179.1875 945.734375 C -179.046875 945.785156 -178.921875 945.867188 -178.8125 945.972656 L -164.753906 959.601562 C -163.40625 960.914062 -161.945312 962.085938 -160.371094 963.117188 C -158.796875 964.148438 -157.136719 965.019531 -155.394531 965.730469 C -153.652344 966.441406 -151.859375 966.980469 -150.011719 967.34375 C -148.167969 967.710938 -146.300781 967.898438 -144.421875 967.902344 L -144.261719 967.902344 C -142.390625 967.90625 -140.539062 967.730469 -138.703125 967.382812 C -136.867188 967.03125 -135.082031 966.507812 -133.347656 965.816406 C -131.613281 965.121094 -129.957031 964.273438 -128.386719 963.261719 C -126.8125 962.253906 -125.351562 961.105469 -123.996094 959.816406 L -108.4375 945.046875 C -108.332031 944.945312 -108.207031 944.867188 -108.0625 944.8125 C -107.921875 944.761719 -107.777344 944.742188 -107.625 944.75 C -107.476562 944.757812 -107.335938 944.796875 -107.199219 944.863281 C -107.066406 944.929688 -106.949219 945.023438 -106.851562 945.136719 L -41.851562 1022.757812 C -41.714844 1022.921875 -41.636719 1023.105469 -41.605469 1023.316406 C -41.578125 1023.523438 -41.609375 1023.726562 -41.699219 1023.917969 C -41.789062 1024.109375 -41.921875 1024.261719 -42.097656 1024.375 C -42.277344 1024.492188 -42.472656 1024.546875 -42.683594 1024.546875 Z M -35.207031 1013.664062 C -35.207031 1013.894531 -35.273438 1014.101562 -35.40625 1014.289062 C -35.539062 1014.476562 -35.710938 1014.609375 -35.925781 1014.6875 C -36.140625 1014.765625 -36.359375 1014.777344 -36.582031 1014.714844 C -36.804688 1014.65625 -36.988281 1014.539062 -37.132812 1014.363281 L -100.390625 938.824219 C -100.578125 938.601562 -100.660156 938.347656 -100.644531 938.0625 C -100.628906 937.773438 -100.515625 937.53125 -100.304688 937.332031 L -37.042969 877.296875 C -36.886719 877.148438 -36.699219 877.054688 -36.488281 877.015625 C -36.273438 876.980469 -36.066406 877.003906 -35.867188 877.089844 C -35.667969 877.175781 -35.507812 877.308594 -35.390625 877.492188 C -35.269531 877.671875 -35.207031 877.871094 -35.207031 878.085938 Z M -35.207031 1013.664062 " fill-opacity="1" fill-rule="nonzero"/></g><g clip-path="url(#3c15a18f9f)"><path fill="#ffffff" d="M 404.457031 242.457031 C 402.542969 242.457031 400.632812 242.507812 398.722656 242.601562 C 396.8125 242.699219 394.90625 242.839844 393.003906 243.03125 C 391.101562 243.21875 389.203125 243.457031 387.3125 243.738281 C 385.421875 244.019531 383.539062 244.347656 381.664062 244.722656 C 379.789062 245.097656 377.921875 245.519531 376.066406 245.984375 C 374.214844 246.449219 372.371094 246.960938 370.542969 247.519531 C 368.710938 248.074219 366.898438 248.675781 365.097656 249.320312 C 363.296875 249.964844 361.515625 250.65625 359.746094 251.386719 C 357.980469 252.121094 356.234375 252.894531 354.507812 253.714844 C 352.777344 254.535156 351.070312 255.394531 349.382812 256.296875 C 347.699219 257.199219 346.035156 258.140625 344.394531 259.125 C 342.757812 260.109375 341.140625 261.132812 339.550781 262.195312 C 337.960938 263.257812 336.398438 264.359375 334.863281 265.496094 C 333.328125 266.636719 331.820312 267.8125 330.34375 269.027344 C 328.863281 270.238281 327.417969 271.488281 326 272.773438 C 324.585938 274.058594 323.199219 275.375 321.847656 276.726562 C 320.496094 278.078125 319.175781 279.464844 317.894531 280.882812 C 316.609375 282.296875 315.359375 283.746094 314.144531 285.222656 C 312.933594 286.703125 311.757812 288.207031 310.617188 289.742188 C 309.476562 291.28125 308.375 292.84375 307.3125 294.433594 C 306.25 296.019531 305.226562 297.636719 304.246094 299.277344 C 303.261719 300.914062 302.316406 302.578125 301.414062 304.265625 C 300.511719 305.949219 299.652344 307.65625 298.835938 309.386719 C 298.015625 311.113281 297.242188 312.863281 296.507812 314.628906 C 295.773438 316.394531 295.085938 318.175781 294.441406 319.976562 C 293.796875 321.777344 293.195312 323.59375 292.636719 325.421875 C 292.082031 327.25 291.570312 329.09375 291.105469 330.949219 C 290.636719 332.800781 290.21875 334.667969 289.84375 336.542969 C 289.46875 338.417969 289.140625 340.300781 288.859375 342.191406 C 288.574219 344.082031 288.339844 345.980469 288.152344 347.882812 C 287.960938 349.785156 287.820312 351.691406 287.722656 353.601562 C 287.628906 355.511719 287.578125 357.421875 287.578125 359.335938 C 287.578125 448.660156 394.152344 556.273438 398.691406 560.800781 L 404.457031 566.566406 L 410.21875 560.800781 C 414.757812 556.269531 521.335938 448.660156 521.335938 359.335938 C 521.332031 357.421875 521.285156 355.511719 521.1875 353.601562 C 521.09375 351.691406 520.949219 349.785156 520.761719 347.882812 C 520.570312 345.980469 520.335938 344.082031 520.050781 342.191406 C 519.769531 340.300781 519.441406 338.417969 519.066406 336.542969 C 518.691406 334.667969 518.273438 332.800781 517.804688 330.949219 C 517.339844 329.09375 516.828125 327.25 516.273438 325.421875 C 515.714844 323.59375 515.117188 321.777344 514.46875 319.976562 C 513.824219 318.175781 513.136719 316.394531 512.402344 314.628906 C 511.671875 312.863281 510.894531 311.113281 510.074219 309.386719 C 509.257812 307.65625 508.398438 305.949219 507.496094 304.265625 C 506.59375 302.578125 505.648438 300.914062 504.667969 299.277344 C 503.683594 297.636719 502.660156 296.019531 501.597656 294.433594 C 500.535156 292.84375 499.433594 291.28125 498.292969 289.742188 C 497.152344 288.207031 495.976562 286.703125 494.765625 285.222656 C 493.550781 283.746094 492.300781 282.296875 491.019531 280.882812 C 489.734375 279.464844 488.414062 278.078125 487.0625 276.726562 C 485.710938 275.375 484.328125 274.058594 482.910156 272.773438 C 481.492188 271.488281 480.046875 270.238281 478.566406 269.027344 C 477.089844 267.8125 475.582031 266.636719 474.046875 265.496094 C 472.511719 264.359375 470.949219 263.257812 469.359375 262.195312 C 467.769531 261.132812 466.15625 260.109375 464.515625 259.125 C 462.875 258.140625 461.210938 257.199219 459.527344 256.296875 C 457.839844 255.394531 456.132812 254.535156 454.40625 253.714844 C 452.675781 252.894531 450.929688 252.121094 449.164062 251.386719 C 447.398438 250.65625 445.613281 249.964844 443.8125 249.320312 C 442.011719 248.675781 440.199219 248.074219 438.371094 247.519531 C 436.539062 246.960938 434.699219 246.449219 432.84375 245.984375 C 430.988281 245.519531 429.125 245.097656 427.25 244.722656 C 425.375 244.347656 423.488281 244.019531 421.597656 243.738281 C 419.707031 243.457031 417.808594 243.21875 415.90625 243.03125 C 414.003906 242.839844 412.097656 242.699219 410.1875 242.601562 C 408.277344 242.507812 406.367188 242.457031 404.457031 242.457031 Z M 404.457031 421.851562 C 402.40625 421.851562 400.367188 421.753906 398.328125 421.550781 C 396.289062 421.351562 394.265625 421.050781 392.257812 420.652344 C 390.25 420.25 388.265625 419.753906 386.308594 419.160156 C 384.347656 418.566406 382.421875 417.878906 380.53125 417.09375 C 378.640625 416.308594 376.789062 415.4375 374.984375 414.46875 C 373.179688 413.503906 371.425781 412.453125 369.722656 411.316406 C 368.019531 410.179688 366.378906 408.960938 364.796875 407.660156 C 363.210938 406.363281 361.695312 404.988281 360.25 403.542969 C 358.800781 402.09375 357.429688 400.578125 356.128906 398.996094 C 354.832031 397.414062 353.613281 395.769531 352.476562 394.066406 C 351.335938 392.367188 350.285156 390.613281 349.320312 388.804688 C 348.355469 387 347.480469 385.152344 346.699219 383.257812 C 345.914062 381.367188 345.226562 379.441406 344.628906 377.484375 C 344.035156 375.523438 343.539062 373.539062 343.140625 371.53125 C 342.742188 369.523438 342.441406 367.5 342.238281 365.464844 C 342.039062 363.425781 341.9375 361.382812 341.9375 359.335938 C 341.9375 357.289062 342.039062 355.246094 342.238281 353.207031 C 342.441406 351.171875 342.742188 349.148438 343.140625 347.140625 C 343.539062 345.132812 344.035156 343.148438 344.628906 341.1875 C 345.226562 339.230469 345.914062 337.304688 346.699219 335.410156 C 347.480469 333.519531 348.355469 331.671875 349.320312 329.867188 C 350.285156 328.058594 351.335938 326.304688 352.476562 324.601562 C 353.613281 322.902344 354.832031 321.257812 356.128906 319.675781 C 357.429688 318.09375 358.800781 316.578125 360.25 315.128906 C 361.695312 313.683594 363.210938 312.308594 364.796875 311.007812 C 366.378906 309.710938 368.019531 308.492188 369.722656 307.355469 C 371.425781 306.21875 373.179688 305.164062 374.984375 304.199219 C 376.789062 303.234375 378.640625 302.359375 380.53125 301.578125 C 382.421875 300.792969 384.347656 300.105469 386.308594 299.511719 C 388.265625 298.917969 390.25 298.417969 392.257812 298.019531 C 394.265625 297.621094 396.289062 297.320312 398.328125 297.121094 C 400.367188 296.917969 402.40625 296.820312 404.457031 296.820312 C 406.503906 296.820312 408.546875 296.917969 410.582031 297.121094 C 412.621094 297.320312 414.644531 297.621094 416.652344 298.019531 C 418.660156 298.417969 420.644531 298.917969 422.601562 299.511719 C 424.5625 300.105469 426.488281 300.792969 428.378906 301.578125 C 430.269531 302.359375 432.121094 303.234375 433.925781 304.199219 C 435.730469 305.164062 437.484375 306.21875 439.1875 307.355469 C 440.890625 308.492188 442.53125 309.710938 444.117188 311.007812 C 445.699219 312.308594 447.214844 313.683594 448.660156 315.128906 C 450.109375 316.578125 451.484375 318.09375 452.78125 319.675781 C 454.082031 321.257812 455.296875 322.902344 456.4375 324.601562 C 457.574219 326.304688 458.625 328.058594 459.589844 329.867188 C 460.554688 331.671875 461.429688 333.519531 462.214844 335.410156 C 462.996094 337.304688 463.6875 339.230469 464.28125 341.1875 C 464.875 343.148438 465.371094 345.132812 465.769531 347.140625 C 466.171875 349.148438 466.46875 351.171875 466.671875 353.207031 C 466.871094 355.246094 466.972656 357.289062 466.972656 359.335938 C 466.96875 361.382812 466.867188 363.425781 466.664062 365.460938 C 466.460938 367.496094 466.160156 369.519531 465.757812 371.527344 C 465.359375 373.535156 464.859375 375.515625 464.265625 377.476562 C 463.667969 379.433594 462.980469 381.359375 462.195312 383.25 C 461.410156 385.140625 460.535156 386.988281 459.570312 388.792969 C 458.605469 390.597656 457.550781 392.351562 456.414062 394.050781 C 455.277344 395.753906 454.058594 397.394531 452.761719 398.976562 C 451.460938 400.558594 450.089844 402.074219 448.640625 403.519531 C 447.195312 404.96875 445.679688 406.339844 444.097656 407.640625 C 442.515625 408.9375 440.875 410.15625 439.171875 411.296875 C 437.46875 412.433594 435.714844 413.484375 433.910156 414.449219 C 432.105469 415.414062 430.257812 416.289062 428.367188 417.074219 C 426.476562 417.859375 424.554688 418.550781 422.59375 419.144531 C 420.636719 419.742188 418.652344 420.238281 416.648438 420.640625 C 414.640625 421.039062 412.617188 421.34375 410.582031 421.546875 C 408.542969 421.746094 406.503906 421.851562 404.457031 421.851562 Z M 404.457031 421.851562 " fill-opacity="1" fill-rule="nonzero"/></g></svg>