<svg xmlns="http://www.w3.org/2000/svg" xmlns:xlink="http://www.w3.org/1999/xlink" width="1080" zoomAndPan="magnify" viewBox="0 0 810 809.999993" height="1080" preserveAspectRatio="xMidYMid meet" version="1.0"><defs><clipPath id="0b9d1eebd3"><path d="M 265 289.371094 L 546 289.371094 L 546 409 L 265 409 Z M 265 289.371094 " clip-rule="nonzero"/></clipPath><clipPath id="730c1d3df7"><path d="M 243 307 L 567 307 L 567 520.371094 L 243 520.371094 Z M 243 307 " clip-rule="nonzero"/></clipPath><clipPath id="3157219fc4"><path d="M 0 785.0625 L 18.753906 785.0625 L 18.753906 810 L 0 810 Z M 0 785.0625 " clip-rule="nonzero"/></clipPath></defs><g clip-path="url(#0b9d1eebd3)"><path fill="#ffffff" d="M 545.597656 292.03125 C 541.304688 290.246094 536.835938 289.359375 532.183594 289.371094 L 277.816406 289.371094 C 273.40625 289.378906 269.167969 290.226562 265.097656 291.917969 L 405 408.925781 Z M 545.597656 292.03125 " fill-opacity="1" fill-rule="nonzero"/></g><g clip-path="url(#730c1d3df7)"><path fill="#ffffff" d="M 562.710938 307.871094 L 412.398438 432.859375 C 411.359375 433.722656 410.203125 434.382812 408.933594 434.839844 C 407.660156 435.296875 406.351562 435.523438 405 435.519531 C 403.648438 435.523438 402.339844 435.296875 401.066406 434.839844 C 399.796875 434.382812 398.640625 433.722656 397.601562 432.859375 L 247.519531 307.410156 C 246.113281 309.960938 245.039062 312.644531 244.296875 315.464844 C 243.550781 318.28125 243.164062 321.144531 243.128906 324.058594 L 243.128906 485.933594 C 243.128906 487.066406 243.183594 488.199219 243.292969 489.332031 C 243.40625 490.460938 243.574219 491.585938 243.792969 492.699219 C 244.015625 493.8125 244.292969 494.914062 244.621094 496 C 244.949219 497.085938 245.332031 498.15625 245.769531 499.207031 C 246.203125 500.253906 246.6875 501.28125 247.222656 502.28125 C 247.757812 503.285156 248.34375 504.257812 248.972656 505.203125 C 249.605469 506.148438 250.28125 507.058594 251 507.9375 C 251.722656 508.816406 252.484375 509.65625 253.289062 510.460938 C 254.089844 511.261719 254.929688 512.023438 255.808594 512.746094 C 256.6875 513.464844 257.597656 514.140625 258.542969 514.773438 C 259.488281 515.402344 260.460938 515.988281 261.464844 516.523438 C 262.464844 517.058594 263.492188 517.542969 264.539062 517.976562 C 265.589844 518.414062 266.660156 518.796875 267.746094 519.125 C 268.832031 519.453125 269.933594 519.730469 271.046875 519.953125 C 272.160156 520.171875 273.285156 520.339844 274.414062 520.453125 C 275.546875 520.5625 276.679688 520.617188 277.816406 520.617188 L 532.183594 520.617188 C 533.320312 520.617188 534.453125 520.5625 535.585938 520.453125 C 536.714844 520.339844 537.839844 520.171875 538.953125 519.953125 C 540.066406 519.730469 541.167969 519.453125 542.253906 519.125 C 543.339844 518.796875 544.410156 518.414062 545.460938 517.976562 C 546.507812 517.542969 547.535156 517.058594 548.535156 516.523438 C 549.539062 515.988281 550.511719 515.402344 551.457031 514.773438 C 552.402344 514.140625 553.3125 513.464844 554.191406 512.746094 C 555.070312 512.023438 555.910156 511.261719 556.710938 510.460938 C 557.515625 509.65625 558.277344 508.816406 559 507.9375 C 559.71875 507.058594 560.394531 506.148438 561.027344 505.203125 C 561.65625 504.257812 562.242188 503.285156 562.777344 502.28125 C 563.3125 501.28125 563.796875 500.253906 564.230469 499.207031 C 564.667969 498.15625 565.050781 497.085938 565.378906 496 C 565.707031 494.914062 565.984375 493.8125 566.207031 492.699219 C 566.425781 491.585938 566.59375 490.460938 566.707031 489.332031 C 566.816406 488.199219 566.871094 487.066406 566.871094 485.933594 L 566.871094 324.058594 C 566.847656 321.230469 566.484375 318.449219 565.78125 315.710938 C 565.078125 312.972656 564.054688 310.359375 562.710938 307.871094 Z M 562.710938 307.871094 " fill-opacity="1" fill-rule="nonzero"/></g><g clip-path="url(#3157219fc4)"><path fill="#ffffff" d="M -143.246094 785.0625 C -232.714844 785.0625 -305.246094 857.589844 -305.246094 947.0625 C -305.246094 1036.53125 -232.714844 1109.0625 -143.246094 1109.0625 C -53.773438 1109.0625 18.753906 1036.53125 18.753906 947.0625 C 18.753906 857.589844 -53.773438 785.0625 -143.246094 785.0625 Z M -241.980469 869.574219 L -44.714844 869.574219 C -44.492188 869.570312 -44.289062 869.632812 -44.101562 869.757812 C -43.914062 869.882812 -43.78125 870.050781 -43.699219 870.257812 C -43.613281 870.464844 -43.597656 870.675781 -43.644531 870.894531 C -43.691406 871.113281 -43.796875 871.300781 -43.960938 871.453125 L -110.273438 934.390625 L -110.382812 934.496094 L -130.183594 953.289062 C -130.65625 953.738281 -131.148438 954.164062 -131.660156 954.566406 C -132.171875 954.972656 -132.703125 955.347656 -133.253906 955.699219 C -133.800781 956.050781 -134.367188 956.375 -134.945312 956.675781 C -135.527344 956.972656 -136.121094 957.242188 -136.726562 957.480469 C -137.332031 957.722656 -137.945312 957.933594 -138.574219 958.113281 C -139.199219 958.296875 -139.832031 958.449219 -140.472656 958.570312 C -141.113281 958.691406 -141.757812 958.78125 -142.40625 958.839844 C -143.058594 958.898438 -143.707031 958.925781 -144.359375 958.921875 C -145.011719 958.917969 -145.660156 958.882812 -146.3125 958.816406 C -146.960938 958.753906 -147.601562 958.65625 -148.242188 958.527344 C -148.882812 958.398438 -149.511719 958.242188 -150.136719 958.054688 C -150.761719 957.867188 -151.375 957.648438 -151.980469 957.402344 C -152.582031 957.152344 -153.171875 956.878906 -153.75 956.574219 C -154.324219 956.269531 -154.886719 955.941406 -155.433594 955.582031 C -155.976562 955.226562 -156.503906 954.84375 -157.011719 954.433594 C -157.519531 954.027344 -158.007812 953.59375 -158.476562 953.140625 L -176.808594 935.363281 C -176.839844 935.335938 -176.871094 935.304688 -176.902344 935.273438 L -242.746094 871.445312 C -242.90625 871.289062 -243.007812 871.105469 -243.054688 870.886719 C -243.097656 870.667969 -243.078125 870.457031 -242.996094 870.25 C -242.910156 870.046875 -242.777344 869.882812 -242.59375 869.757812 C -242.40625 869.632812 -242.203125 869.574219 -241.980469 869.574219 Z M -251.28125 1013.664062 L -251.28125 878.28125 C -251.28125 878.0625 -251.21875 877.863281 -251.097656 877.679688 C -250.976562 877.496094 -250.816406 877.363281 -250.617188 877.277344 C -250.414062 877.191406 -250.207031 877.167969 -249.992188 877.210938 C -249.773438 877.25 -249.589844 877.34375 -249.433594 877.496094 L -186.863281 938.164062 C -186.65625 938.363281 -186.546875 938.605469 -186.53125 938.890625 C -186.519531 939.175781 -186.601562 939.425781 -186.785156 939.644531 L -249.355469 1014.367188 C -249.5 1014.542969 -249.6875 1014.660156 -249.90625 1014.722656 C -250.128906 1014.78125 -250.347656 1014.769531 -250.5625 1014.691406 C -250.78125 1014.613281 -250.953125 1014.480469 -251.085938 1014.292969 C -251.214844 1014.101562 -251.28125 1013.894531 -251.28125 1013.664062 Z M -42.683594 1024.546875 L -243.804688 1024.546875 C -244.015625 1024.546875 -244.210938 1024.492188 -244.390625 1024.378906 C -244.570312 1024.265625 -244.703125 1024.113281 -244.792969 1023.917969 C -244.882812 1023.726562 -244.914062 1023.527344 -244.886719 1023.316406 C -244.859375 1023.105469 -244.777344 1022.921875 -244.640625 1022.757812 L -180.40625 946.054688 C -180.308594 945.9375 -180.191406 945.84375 -180.058594 945.777344 C -179.921875 945.710938 -179.777344 945.671875 -179.628906 945.664062 C -179.476562 945.65625 -179.328125 945.679688 -179.1875 945.734375 C -179.046875 945.785156 -178.921875 945.867188 -178.8125 945.972656 L -164.753906 959.601562 C -163.40625 960.914062 -161.945312 962.085938 -160.371094 963.117188 C -158.796875 964.148438 -157.136719 965.019531 -155.394531 965.730469 C -153.652344 966.441406 -151.859375 966.980469 -150.011719 967.34375 C -148.167969 967.710938 -146.300781 967.898438 -144.421875 967.902344 L -144.261719 967.902344 C -142.390625 967.90625 -140.539062 967.730469 -138.703125 967.382812 C -136.867188 967.03125 -135.082031 966.507812 -133.347656 965.816406 C -131.613281 965.121094 -129.957031 964.273438 -128.386719 963.261719 C -126.8125 962.253906 -125.351562 961.105469 -123.996094 959.816406 L -108.4375 945.046875 C -108.332031 944.945312 -108.207031 944.867188 -108.0625 944.8125 C -107.921875 944.761719 -107.777344 944.742188 -107.625 944.75 C -107.476562 944.757812 -107.335938 944.796875 -107.199219 944.863281 C -107.066406 944.929688 -106.949219 945.023438 -106.851562 945.136719 L -41.851562 1022.757812 C -41.714844 1022.921875 -41.636719 1023.105469 -41.605469 1023.316406 C -41.578125 1023.523438 -41.609375 1023.726562 -41.699219 1023.917969 C -41.789062 1024.109375 -41.921875 1024.261719 -42.097656 1024.375 C -42.277344 1024.492188 -42.472656 1024.546875 -42.683594 1024.546875 Z M -35.207031 1013.664062 C -35.207031 1013.894531 -35.273438 1014.101562 -35.40625 1014.289062 C -35.539062 1014.476562 -35.710938 1014.609375 -35.925781 1014.6875 C -36.140625 1014.765625 -36.359375 1014.777344 -36.582031 1014.714844 C -36.804688 1014.65625 -36.988281 1014.539062 -37.132812 1014.363281 L -100.390625 938.824219 C -100.578125 938.601562 -100.660156 938.347656 -100.644531 938.0625 C -100.628906 937.773438 -100.515625 937.53125 -100.304688 937.332031 L -37.042969 877.296875 C -36.886719 877.148438 -36.699219 877.054688 -36.488281 877.015625 C -36.273438 876.980469 -36.066406 877.003906 -35.867188 877.089844 C -35.667969 877.175781 -35.507812 877.308594 -35.390625 877.492188 C -35.269531 877.671875 -35.207031 877.871094 -35.207031 878.085938 Z M -35.207031 1013.664062 " fill-opacity="1" fill-rule="nonzero"/></g></svg>