<svg xmlns="http://www.w3.org/2000/svg" xmlns:xlink="http://www.w3.org/1999/xlink" width="500" zoomAndPan="magnify" viewBox="0 0 375 374.999991" height="500" preserveAspectRatio="xMidYMid meet" version="1.0"><defs><clipPath id="5f417feefa"><path d="M 11.425781 11.902344 L 363.992188 11.902344 L 363.992188 363.097656 L 11.425781 363.097656 Z M 11.425781 11.902344 " clip-rule="nonzero"/></clipPath><clipPath id="20ccfc6dce"><path d="M 187.5 11.902344 C 90.257812 11.902344 11.425781 90.519531 11.425781 187.5 C 11.425781 284.480469 90.257812 363.097656 187.5 363.097656 C 284.742188 363.097656 363.574219 284.480469 363.574219 187.5 C 363.574219 90.519531 284.742188 11.902344 187.5 11.902344 Z M 187.5 11.902344 " clip-rule="nonzero"/></clipPath><clipPath id="9b8b2565dd"><path d="M 16.839844 16.839844 L 358.089844 16.839844 L 358.089844 358.089844 L 16.839844 358.089844 Z M 16.839844 16.839844 " clip-rule="nonzero"/></clipPath></defs><g clip-path="url(#5f417feefa)"><g clip-path="url(#20ccfc6dce)"><path fill="#ffffff" d="M 11.425781 11.902344 L 363.992188 11.902344 L 363.992188 363.097656 L 11.425781 363.097656 Z M 11.425781 11.902344 " fill-opacity="1" fill-rule="nonzero"/></g></g><g clip-path="url(#9b8b2565dd)"><path fill="#19375f" d="M 187.464844 358.089844 C 190.257812 358.089844 193.050781 358.023438 195.839844 357.886719 C 198.628906 357.75 201.410156 357.542969 204.191406 357.269531 C 206.96875 356.996094 209.742188 356.65625 212.503906 356.246094 C 215.265625 355.835938 218.015625 355.359375 220.753906 354.8125 C 223.492188 354.269531 226.214844 353.65625 228.925781 352.976562 C 231.632812 352.300781 234.324219 351.554688 236.996094 350.746094 C 239.667969 349.933594 242.320312 349.058594 244.949219 348.117188 C 247.578125 347.175781 250.183594 346.171875 252.761719 345.101562 C 255.339844 344.035156 257.894531 342.902344 260.417969 341.710938 C 262.941406 340.515625 265.4375 339.261719 267.898438 337.945312 C 270.363281 336.628906 272.789062 335.253906 275.183594 333.816406 C 277.582031 332.382812 279.9375 330.886719 282.261719 329.335938 C 284.582031 327.785156 286.863281 326.175781 289.109375 324.515625 C 291.351562 322.851562 293.550781 321.132812 295.710938 319.363281 C 297.867188 317.589844 299.980469 315.765625 302.050781 313.890625 C 304.121094 312.015625 306.140625 310.089844 308.117188 308.117188 C 310.089844 306.140625 312.015625 304.121094 313.890625 302.050781 C 315.765625 299.980469 317.589844 297.867188 319.363281 295.710938 C 321.132812 293.550781 322.851562 291.351562 324.515625 289.109375 C 326.175781 286.863281 327.785156 284.582031 329.335938 282.261719 C 330.886719 279.9375 332.382812 277.582031 333.816406 275.183594 C 335.253906 272.789062 336.628906 270.363281 337.945312 267.898438 C 339.261719 265.4375 340.515625 262.941406 341.710938 260.417969 C 342.902344 257.894531 344.035156 255.339844 345.101562 252.761719 C 346.171875 250.183594 347.175781 247.578125 348.117188 244.949219 C 349.058594 242.320312 349.933594 239.667969 350.746094 236.996094 C 351.554688 234.324219 352.300781 231.632812 352.976562 228.925781 C 353.65625 226.214844 354.269531 223.492188 354.8125 220.753906 C 355.359375 218.015625 355.835938 215.265625 356.246094 212.503906 C 356.65625 209.742188 356.996094 206.96875 357.269531 204.191406 C 357.542969 201.410156 357.75 198.628906 357.886719 195.839844 C 358.023438 193.050781 358.089844 190.257812 358.089844 187.464844 C 358.089844 184.675781 358.023438 181.882812 357.886719 179.09375 C 357.75 176.304688 357.542969 173.519531 357.269531 170.742188 C 356.996094 167.964844 356.65625 165.191406 356.246094 162.429688 C 355.835938 159.667969 355.359375 156.917969 354.8125 154.179688 C 354.269531 151.441406 353.65625 148.71875 352.976562 146.007812 C 352.300781 143.300781 351.554688 140.609375 350.746094 137.9375 C 349.933594 135.265625 349.058594 132.613281 348.117188 129.984375 C 347.175781 127.355469 346.171875 124.75 345.101562 122.171875 C 344.035156 119.589844 342.902344 117.039062 341.710938 114.515625 C 340.515625 111.992188 339.261719 109.496094 337.945312 107.035156 C 336.628906 104.570312 335.253906 102.144531 333.816406 99.746094 C 332.382812 97.351562 330.886719 94.996094 329.335938 92.671875 C 327.785156 90.351562 326.175781 88.066406 324.515625 85.824219 C 322.851562 83.582031 321.132812 81.382812 319.363281 79.222656 C 317.589844 77.066406 315.765625 74.949219 313.890625 72.882812 C 312.015625 70.8125 310.089844 68.792969 308.117188 66.816406 C 306.140625 64.84375 304.121094 62.917969 302.050781 61.042969 C 299.980469 59.167969 297.867188 57.34375 295.710938 55.570312 C 293.550781 53.800781 291.351562 52.082031 289.109375 50.417969 C 286.863281 48.757812 284.582031 47.148438 282.261719 45.597656 C 279.9375 44.046875 277.582031 42.550781 275.183594 41.117188 C 272.789062 39.679688 270.363281 38.304688 267.898438 36.988281 C 265.4375 35.671875 262.941406 34.417969 260.417969 33.222656 C 257.894531 32.03125 255.339844 30.898438 252.761719 29.828125 C 250.183594 28.761719 247.578125 27.757812 244.949219 26.816406 C 242.320312 25.875 239.667969 25 236.996094 24.1875 C 234.324219 23.378906 231.632812 22.632812 228.925781 21.953125 C 226.214844 21.277344 223.492188 20.664062 220.753906 20.121094 C 218.015625 19.574219 215.265625 19.097656 212.503906 18.6875 C 209.742188 18.277344 206.96875 17.9375 204.191406 17.664062 C 201.410156 17.390625 198.628906 17.183594 195.839844 17.046875 C 193.050781 16.910156 190.257812 16.839844 187.464844 16.839844 C 184.675781 16.839844 181.882812 16.910156 179.09375 17.046875 C 176.304688 17.183594 173.519531 17.390625 170.742188 17.664062 C 167.964844 17.9375 165.191406 18.277344 162.429688 18.6875 C 159.667969 19.097656 156.917969 19.574219 154.179688 20.121094 C 151.441406 20.664062 148.71875 21.277344 146.007812 21.953125 C 143.300781 22.632812 140.609375 23.378906 137.9375 24.1875 C 135.265625 25 132.613281 25.875 129.984375 26.816406 C 127.355469 27.757812 124.75 28.761719 122.171875 29.828125 C 119.589844 30.898438 117.039062 32.03125 114.515625 33.222656 C 111.992188 34.417969 109.496094 35.671875 107.035156 36.988281 C 104.570312 38.304688 102.144531 39.679688 99.746094 41.117188 C 97.351562 42.550781 94.996094 44.046875 92.671875 45.597656 C 90.351562 47.148438 88.066406 48.757812 85.824219 50.417969 C 83.582031 52.082031 81.382812 53.800781 79.222656 55.570312 C 77.066406 57.34375 74.949219 59.167969 72.882812 61.042969 C 70.8125 62.917969 68.792969 64.84375 66.816406 66.816406 C 64.84375 68.792969 62.917969 70.8125 61.042969 72.882812 C 59.167969 74.949219 57.34375 77.066406 55.570312 79.222656 C 53.800781 81.382812 52.082031 83.582031 50.417969 85.824219 C 48.757812 88.066406 47.148438 90.351562 45.597656 92.671875 C 44.046875 94.996094 42.550781 97.351562 41.117188 99.746094 C 39.679688 102.144531 38.304688 104.570312 36.988281 107.035156 C 35.671875 109.496094 34.417969 111.992188 33.222656 114.515625 C 32.03125 117.039062 30.898438 119.589844 29.828125 122.171875 C 28.761719 124.75 27.757812 127.355469 26.816406 129.984375 C 25.875 132.613281 25 135.265625 24.1875 137.9375 C 23.378906 140.609375 22.632812 143.300781 21.953125 146.007812 C 21.277344 148.71875 20.664062 151.441406 20.121094 154.179688 C 19.574219 156.917969 19.097656 159.667969 18.6875 162.429688 C 18.277344 165.191406 17.9375 167.964844 17.664062 170.742188 C 17.390625 173.519531 17.183594 176.304688 17.046875 179.09375 C 16.910156 181.882812 16.839844 184.675781 16.839844 187.464844 C 16.839844 190.257812 16.910156 193.050781 17.046875 195.839844 C 17.183594 198.628906 17.390625 201.410156 17.664062 204.191406 C 17.9375 206.96875 18.277344 209.742188 18.6875 212.503906 C 19.097656 215.265625 19.574219 218.015625 20.121094 220.753906 C 20.664062 223.492188 21.277344 226.214844 21.953125 228.925781 C 22.632812 231.632812 23.378906 234.324219 24.1875 236.996094 C 25 239.667969 25.875 242.320312 26.816406 244.949219 C 27.757812 247.578125 28.761719 250.183594 29.828125 252.761719 C 30.898438 255.339844 32.03125 257.894531 33.222656 260.417969 C 34.417969 262.941406 35.671875 265.4375 36.988281 267.898438 C 38.304688 270.363281 39.679688 272.789062 41.117188 275.183594 C 42.550781 277.582031 44.046875 279.9375 45.597656 282.261719 C 47.148438 284.582031 48.757812 286.863281 50.417969 289.109375 C 52.082031 291.351562 53.800781 293.550781 55.570312 295.710938 C 57.34375 297.867188 59.167969 299.980469 61.042969 302.050781 C 62.917969 304.121094 64.84375 306.140625 66.816406 308.117188 C 68.792969 310.089844 70.8125 312.015625 72.882812 313.890625 C 74.949219 315.765625 77.066406 317.589844 79.222656 319.363281 C 81.382812 321.132812 83.582031 322.851562 85.824219 324.515625 C 88.066406 326.175781 90.351562 327.785156 92.671875 329.335938 C 94.996094 330.886719 97.351562 332.382812 99.746094 333.816406 C 102.144531 335.253906 104.570312 336.628906 107.035156 337.945312 C 109.496094 339.261719 111.992188 340.515625 114.515625 341.710938 C 117.039062 342.902344 119.589844 344.035156 122.171875 345.101562 C 124.75 346.171875 127.355469 347.175781 129.984375 348.117188 C 132.613281 349.058594 135.265625 349.933594 137.9375 350.746094 C 140.609375 351.554688 143.300781 352.300781 146.007812 352.976562 C 148.71875 353.65625 151.441406 354.269531 154.179688 354.8125 C 156.917969 355.359375 159.667969 355.835938 162.429688 356.246094 C 165.191406 356.65625 167.964844 356.996094 170.742188 357.269531 C 173.519531 357.542969 176.304688 357.75 179.09375 357.886719 C 181.882812 358.023438 184.675781 358.089844 187.464844 358.089844 " fill-opacity="1" fill-rule="nonzero"/></g><path fill="#ffffff" d="M 221.734375 196.707031 L 222.230469 196.140625 L 187.464844 116.371094 C 178.367188 137.203125 169.410156 157.679688 160.308594 178.367188 L 221.804688 196.78125 M 187.464844 59 C 189.101562 62.484375 190.523438 65.328125 191.875 68.242188 C 194.433594 73.859375 196.921875 79.546875 199.480469 85.164062 C 205.738281 99.382812 211.921875 112.960938 218.25 126.824219 C 221.589844 133.933594 225.359375 141.609375 228.488281 149.074219 C 235.027344 163.292969 241.496094 177.511719 248.039062 192.300781 C 254.578125 207.089844 261.402344 221.875 268.15625 236.664062 C 273.347656 248.25 278.679688 259.769531 284.082031 271.5 L 256.214844 271.5 C 250.101562 258.132812 243.984375 244.578125 237.871094 230.832031 C 237.625 230.628906 237.410156 230.390625 237.230469 230.121094 C 236.664062 226.210938 233.960938 224.648438 230.550781 223.652344 C 218.390625 220.167969 206.304688 216.542969 194.21875 212.917969 L 151.917969 200.191406 C 151.570312 200.167969 151.234375 200.230469 150.917969 200.382812 C 150.601562 200.535156 150.34375 200.757812 150.140625 201.046875 C 145.875 210.214844 141.683594 219.457031 137.558594 228.699219 C 131.300781 242.5625 125.1875 256.5 118.933594 270.363281 C 118.507812 271.058594 117.894531 271.460938 117.082031 271.570312 L 90.921875 271.570312 C 92.058594 268.941406 93.054688 266.453125 94.121094 264.105469 C 101.039062 248.84375 107.984375 233.605469 114.949219 218.390625 L 135 174.242188 L 156.328125 127.746094 C 163.4375 112.035156 170.546875 96.253906 177.65625 80.542969 C 180.785156 73.433594 184.054688 66.324219 187.609375 59.214844 " fill-opacity="1" fill-rule="nonzero"/></svg>