<svg id="Calque_1" data-name="Calque 1" xmlns="http://www.w3.org/2000/svg" xmlns:xlink="http://www.w3.org/1999/xlink" viewBox="0 0 48 48"><defs><style>.cls-1{fill:none;}.cls-2{clip-path:url(#clip-path);}.cls-3{fill:#19375f;}.cls-4{fill:#fff;}</style><clipPath id="clip-path"><rect class="cls-1" width="48" height="48"/></clipPath></defs><title>favicon 48x48</title><g class="cls-2"><path class="cls-3" d="M24,48A24,24,0,1,0,0,24,24,24,0,0,0,24,48"/><path class="cls-4" d="M28.82,25.3l.07-.08L24,14c-1.28,2.93-2.54,5.81-3.82,8.72l8.65,2.59M24,5.93c.23.49.43.89.62,1.3.36.79.71,1.59,1.07,2.38.88,2,1.75,3.91,2.64,5.86.47,1,1,2.08,1.44,3.13.92,2,1.83,4,2.75,6.08s1.88,4.16,2.83,6.24c.73,1.63,1.48,3.25,2.24,4.9H33.67Q32.38,33,31.09,30.1A.47.47,0,0,1,31,30c-.08-.55-.46-.77-.94-.91-1.71-.49-3.41-1-5.11-1.51L19,25.79a.28.28,0,0,0-.25.12c-.6,1.29-1.19,2.59-1.77,3.89-.88,1.95-1.74,3.91-2.62,5.86a.36.36,0,0,1-.26.17H10.42c.16-.37.3-.72.45-1.05q1.46-3.22,2.93-6.43l2.82-6.21,3-6.54c1-2.21,2-4.43,3-6.64.44-1,.9-2,1.4-3"/></g></svg>